<svg width="28" height="32" viewBox="0 0 28 32" fill="none" xmlns="http://www.w3.org/2000/svg">
<path d="M27.056 24.9381C26.5721 26.0561 25.9993 27.0852 25.3356 28.0313C24.4309 29.3212 23.6902 30.214 23.1194 30.7098C22.2345 31.5236 21.2863 31.9403 20.2711 31.9641C19.5422 31.9641 18.6632 31.7566 17.64 31.3359C16.6135 30.9172 15.6701 30.7098 14.8075 30.7098C13.9029 30.7098 12.9326 30.9172 11.8948 31.3359C10.8555 31.7566 10.0182 31.9759 9.37798 31.9976C8.40438 32.0391 7.43394 31.6105 6.46528 30.7098C5.84703 30.1705 5.07372 29.2461 4.14733 27.9365C3.15338 26.538 2.33623 24.9164 1.69605 23.0675C1.01044 21.0706 0.666748 19.1368 0.666748 17.2646C0.666748 15.1201 1.13014 13.2705 2.05831 11.7205C2.78777 10.4755 3.7582 9.49342 4.97278 8.77245C6.18736 8.05149 7.49971 7.68409 8.913 7.66058C9.68631 7.66058 10.7004 7.89979 11.9606 8.3699C13.2173 8.84159 14.0241 9.08079 14.3779 9.08079C14.6424 9.08079 15.5388 8.80109 17.0583 8.24348C18.4953 7.72636 19.7081 7.51224 20.7017 7.59659C23.3939 7.81386 25.4166 8.87516 26.7617 10.7872C24.3539 12.2461 23.1628 14.2895 23.1865 16.9109C23.2083 18.9527 23.949 20.6518 25.4047 22.0009C26.0645 22.627 26.8012 23.111 27.6209 23.4547C27.4432 23.9702 27.2555 24.464 27.056 24.9381ZM20.8814 0.640549C20.8814 2.24091 20.2967 3.73517 19.1313 5.11824C17.725 6.76244 16.0239 7.71253 14.1792 7.56261C14.1557 7.37062 14.1421 7.16855 14.1421 6.95621C14.1421 5.41986 14.8109 3.77566 15.9986 2.43131C16.5916 1.75064 17.3457 1.18467 18.2603 0.733187C19.1728 0.28844 20.036 0.0424849 20.8478 0.000366211C20.8715 0.21431 20.8814 0.428268 20.8814 0.640528V0.640549Z" fill="white"/>
</svg>
