<svg width="20" height="20" viewBox="0 0 20 20" fill="none" xmlns="http://www.w3.org/2000/svg">
<path fill-rule="evenodd" clip-rule="evenodd" d="M18.875 20H1.125C0.82708 20.0002 0.541286 19.8571 0.330361 19.6023C0.119436 19.3474 0.000620899 19.0016 0 18.6408L0 7.06797H20V18.6408C19.9993 19.0016 19.8805 19.3474 19.6696 19.6022C19.4587 19.857 19.1729 20.0001 18.875 20ZM15.6478 0.524124C15.6473 0.455532 15.658 0.38749 15.6793 0.32393C15.7006 0.26037 15.732 0.202552 15.7719 0.153817C15.8117 0.105082 15.8592 0.0663963 15.9115 0.0399949C15.9637 0.0135935 16.0198 0 16.0764 0C16.1331 0 16.1891 0.0135935 16.2414 0.0399949C16.2937 0.0663963 16.3411 0.105082 16.381 0.153817C16.4208 0.202552 16.4523 0.26037 16.4736 0.32393C16.4949 0.38749 16.5056 0.455532 16.505 0.524124V2.4854C16.5056 2.55399 16.4949 2.62203 16.4736 2.68559C16.4523 2.74915 16.4208 2.80697 16.381 2.85571C16.3411 2.90444 16.2937 2.94313 16.2414 2.96953C16.1891 2.99593 16.1331 3.00952 16.0764 3.00952C16.0198 3.00952 15.9637 2.99593 15.9115 2.96953C15.8592 2.94313 15.8117 2.90444 15.7719 2.85571C15.732 2.80697 15.7006 2.74915 15.6793 2.68559C15.658 2.62203 15.6473 2.55399 15.6478 2.4854V0.524124ZM9.57137 0.524124C9.57137 0.386482 9.61651 0.254478 9.69687 0.157151C9.77722 0.0598234 9.8862 0.00514547 9.99984 0.00514547C10.1135 0.00514547 10.2225 0.0598234 10.3028 0.157151C10.3832 0.254478 10.4283 0.386482 10.4283 0.524124V2.4854C10.4283 2.62304 10.3832 2.75505 10.3028 2.85237C10.2225 2.9497 10.1135 3.00438 9.99984 3.00438C9.8862 3.00438 9.77722 2.9497 9.69687 2.85237C9.61651 2.75505 9.57137 2.62304 9.57137 2.4854V0.524124ZM3.49496 0.524124C3.49496 0.386533 3.54009 0.254576 3.62041 0.157285C3.70074 0.0599927 3.80968 0.00533461 3.92328 0.00533461C4.03688 0.00533461 4.14582 0.0599927 4.22615 0.157285C4.30648 0.254576 4.3516 0.386533 4.3516 0.524124V2.4854C4.3516 2.62299 4.30648 2.75495 4.22615 2.85224C4.14582 2.94953 4.03688 3.00419 3.92328 3.00419C3.80968 3.00419 3.70074 2.94953 3.62041 2.85224C3.54009 2.75495 3.49496 2.62299 3.49496 2.4854V0.524124ZM1.125 1.90856C0.826773 1.90922 0.540919 2.05302 0.330054 2.30846C0.11919 2.5639 0.000505967 2.91015 0 3.27137L0 6.26H20V3.27137C19.9994 2.9102 19.8807 2.56403 19.6698 2.30865C19.459 2.05327 19.1732 1.90947 18.875 1.90875H17.1715V2.4854C17.1724 2.66025 17.1447 2.83359 17.09 2.99543C17.0354 3.15727 16.9549 3.30443 16.8531 3.42844C16.7513 3.55245 16.6303 3.65086 16.497 3.71802C16.3637 3.78518 16.2208 3.81975 16.0764 3.81975C15.9321 3.81975 15.7891 3.78518 15.6558 3.71802C15.5225 3.65086 15.4015 3.55245 15.2998 3.42844C15.198 3.30443 15.1174 3.15727 15.0628 2.99543C15.0082 2.83359 14.9805 2.66025 14.9813 2.4854V1.90856H11.0946V2.4854C11.0946 2.83718 10.9792 3.17455 10.7739 3.42329C10.5685 3.67204 10.29 3.81178 9.99953 3.81178C9.7091 3.81178 9.43056 3.67204 9.22519 3.42329C9.01983 3.17455 8.90445 2.83718 8.90445 2.4854V1.90856H5.01836V2.4854C5.01922 2.66023 4.99154 2.83354 4.9369 2.99536C4.88226 3.15718 4.80174 3.30431 4.69998 3.42831C4.59822 3.5523 4.47722 3.6507 4.34395 3.71784C4.21068 3.78499 4.06776 3.81956 3.92342 3.81956C3.77908 3.81956 3.63616 3.78499 3.50288 3.71784C3.36961 3.6507 3.24862 3.5523 3.14686 3.42831C3.04509 3.30431 2.96458 3.15718 2.90994 2.99536C2.8553 2.83354 2.82761 2.66023 2.82848 2.4854V1.90856H1.125ZM2.60582 10.8605C2.60578 10.9136 2.61438 10.9661 2.63112 11.0151C2.64786 11.0641 2.67241 11.1087 2.70338 11.1462C2.73435 11.1837 2.77112 11.2134 2.81159 11.2337C2.85206 11.254 2.89543 11.2644 2.93922 11.2643H12.0637C12.1515 11.2632 12.2353 11.2201 12.2971 11.1445C12.3588 11.0689 12.3935 10.9669 12.3935 10.8605C12.3935 10.7542 12.3588 10.6521 12.2971 10.5765C12.2353 10.5009 12.1515 10.4579 12.0637 10.4567H2.93922C2.89542 10.4567 2.85205 10.4671 2.81158 10.4874C2.77111 10.5076 2.73434 10.5374 2.70337 10.5749C2.6724 10.6124 2.64784 10.6569 2.6311 10.7059C2.61437 10.755 2.60577 10.8075 2.60582 10.8605ZM2.60582 13.5357C2.60578 13.5887 2.61438 13.6413 2.63112 13.6903C2.64786 13.7393 2.67241 13.7838 2.70338 13.8213C2.73435 13.8588 2.77112 13.8886 2.81159 13.9088C2.85206 13.9291 2.89543 13.9395 2.93922 13.9395H14.7584C14.8462 13.9383 14.9301 13.8953 14.9918 13.8197C15.0536 13.7441 15.0882 13.642 15.0882 13.5357C15.0882 13.4293 15.0536 13.3273 14.9918 13.2517C14.9301 13.1761 14.8462 13.133 14.7584 13.1319H2.93922C2.89542 13.1318 2.85205 13.1422 2.81158 13.1625C2.77111 13.1828 2.73434 13.2125 2.70337 13.25C2.6724 13.2875 2.64784 13.3321 2.6311 13.3811C2.61437 13.4301 2.60577 13.4826 2.60582 13.5357ZM17.8767 16.2108C17.8767 16.1578 17.8681 16.1053 17.8514 16.0562C17.8346 16.0072 17.8101 15.9627 17.7791 15.9252C17.7482 15.8877 17.7114 15.8579 17.6709 15.8377C17.6304 15.8174 17.5871 15.807 17.5433 15.8071H2.93922C2.85081 15.8071 2.76602 15.8496 2.7035 15.9253C2.64098 16.001 2.60586 16.1037 2.60586 16.2108C2.60586 16.3179 2.64098 16.4206 2.7035 16.4963C2.76602 16.5721 2.85081 16.6146 2.93922 16.6146H17.5433C17.5871 16.6147 17.6304 16.6042 17.6709 16.584C17.7114 16.5637 17.7482 16.534 17.7791 16.4965C17.8101 16.459 17.8346 16.4144 17.8514 16.3654C17.8681 16.3164 17.8767 16.2639 17.8767 16.2108Z" />
</svg>
