<svg width="12" height="8" viewBox="0 0 12 8" fill="none" xmlns="http://www.w3.org/2000/svg">
<path d="M1.28061 0.844878L6.00029 5.56453L10.72 0.844878C10.8609 0.705637 11.0512 0.62782 11.2493 0.628421C11.4475 0.629023 11.6373 0.707993 11.7774 0.848088C11.9175 0.988182 11.9965 1.17802 11.9971 1.37614C11.9977 1.57426 11.9199 1.76458 11.7806 1.90552L6.53061 7.15552C6.38996 7.29616 6.1992 7.37518 6.00029 7.37518C5.80138 7.37518 5.61062 7.29616 5.46997 7.15552L0.219968 1.90552C0.0807266 1.76458 0.00291057 1.57426 0.0035114 1.37614C0.00411317 1.17802 0.0830831 0.988182 0.223178 0.848087C0.363273 0.707993 0.553109 0.629022 0.751231 0.628421C0.949354 0.62782 1.13967 0.705636 1.28061 0.844878Z" fill="#B6B6B6"/>
</svg>
