<svg width="20" height="20" viewBox="0 0 20 20" fill="none" xmlns="http://www.w3.org/2000/svg">
<path fill-rule="evenodd" clip-rule="evenodd" d="M16.5421 0.602109L19.8871 2.92242H16.5421V0.602109ZM0 20H20V3.58906H16.2089C16.1205 3.58905 16.0358 3.55395 15.9733 3.49147C15.9108 3.42899 15.8757 3.34426 15.8757 3.2559V0H0V20ZM3.49828 3.18414L4.74082 1.94141C4.80333 1.87892 4.8881 1.84383 4.97648 1.84385C5.06486 1.84387 5.14961 1.879 5.21209 1.9415C5.27457 2.00401 5.30966 2.08878 5.30964 2.17716C5.30963 2.26554 5.2745 2.35029 5.21199 2.41277L3.73375 3.89121C3.67124 3.95365 3.58651 3.98872 3.49816 3.98872C3.40982 3.98872 3.32508 3.95365 3.26258 3.89121L2.49672 3.12535C2.43418 3.06287 2.39902 2.9781 2.39898 2.8897C2.39894 2.8013 2.43402 2.7165 2.4965 2.65396C2.55898 2.59143 2.64375 2.55627 2.73215 2.55623C2.82055 2.55619 2.90535 2.59127 2.96789 2.65375L3.49828 3.18414ZM1.35168 4.695V1.97086C1.35167 1.92708 1.36028 1.88372 1.37703 1.84327C1.39378 1.80282 1.41834 1.76606 1.44929 1.7351C1.48025 1.70414 1.517 1.67958 1.55745 1.66283C1.5979 1.64608 1.64126 1.63746 1.68504 1.63746H3.49258C3.58035 1.63841 3.6642 1.67395 3.72593 1.73635C3.78767 1.79875 3.82229 1.88298 3.82229 1.97076C3.82229 2.05854 3.78767 2.14277 3.72593 2.20518C3.6642 2.26758 3.58035 2.30311 3.49258 2.30406H2.01824V4.36164H4.07582V3.93543C4.07534 3.89135 4.08361 3.84761 4.10015 3.80674C4.11669 3.76587 4.14117 3.72869 4.17218 3.69735C4.20318 3.66601 4.2401 3.64113 4.28078 3.62415C4.32147 3.60717 4.36511 3.59842 4.4092 3.59842C4.45329 3.59842 4.49693 3.60717 4.53762 3.62415C4.5783 3.64113 4.61522 3.66601 4.64622 3.69735C4.67722 3.72869 4.7017 3.76587 4.71825 3.80674C4.73479 3.84761 4.74306 3.89135 4.74258 3.93543V4.695C4.74259 4.73878 4.73397 4.78212 4.71722 4.82257C4.70046 4.86301 4.6759 4.89976 4.64494 4.9307C4.61398 4.96165 4.57722 4.98619 4.53676 5.00292C4.49631 5.01965 4.45296 5.02824 4.40918 5.0282H1.68504C1.64127 5.02823 1.59792 5.01964 1.55747 5.0029C1.51702 4.98617 1.48026 4.96163 1.4493 4.93069C1.41835 4.89974 1.39379 4.863 1.37704 4.82256C1.36029 4.78212 1.35167 4.73877 1.35168 4.695ZM5.3382 6.16797C5.33822 6.21173 5.32961 6.25506 5.31287 6.29549C5.29614 6.33592 5.2716 6.37266 5.24066 6.4036C5.20972 6.43454 5.17298 6.45909 5.13256 6.47583C5.09213 6.49257 5.0488 6.50118 5.00504 6.50117H1.68504C1.59665 6.50117 1.51188 6.46606 1.44937 6.40356C1.38687 6.34105 1.35176 6.25628 1.35176 6.16789C1.35176 6.0795 1.38687 5.99473 1.44937 5.93223C1.51188 5.86972 1.59665 5.83461 1.68504 5.83461H5.00504C5.04881 5.8346 5.09215 5.84322 5.13259 5.85997C5.17303 5.87672 5.20977 5.90128 5.24071 5.93224C5.27166 5.9632 5.29619 5.99995 5.31292 6.0404C5.32965 6.08085 5.33824 6.1242 5.3382 6.16797ZM14.1129 4.24035C14.1129 4.28414 14.1043 4.32749 14.0876 4.36795C14.0708 4.4084 14.0463 4.44516 14.0153 4.47612C13.9844 4.50708 13.9476 4.53164 13.9072 4.54839C13.8667 4.56514 13.8234 4.57376 13.7796 4.57375H6.82996C6.78589 4.57423 6.74216 4.56596 6.7013 4.54942C6.66045 4.53289 6.62327 4.50841 6.59194 4.47741C6.5606 4.44642 6.53573 4.40951 6.51875 4.36884C6.50177 4.32816 6.49303 4.28452 6.49303 4.24045C6.49303 4.19637 6.50177 4.15274 6.51875 4.11206C6.53573 4.07138 6.5606 4.03448 6.59194 4.00348C6.62327 3.97249 6.66045 3.94801 6.7013 3.93148C6.74216 3.91494 6.78589 3.90667 6.82996 3.90715H13.7796C13.8233 3.90713 13.8667 3.91574 13.9071 3.93248C13.9476 3.94922 13.9843 3.97376 14.0153 4.0047C14.0462 4.03564 14.0708 4.07238 14.0875 4.11281C14.1043 4.15324 14.1129 4.19658 14.1129 4.24035ZM6.49664 2.42496C6.49663 2.38118 6.50525 2.33782 6.522 2.29736C6.53875 2.25691 6.56331 2.22015 6.59427 2.18919C6.62523 2.15823 6.66199 2.13367 6.70244 2.11692C6.7429 2.10017 6.78625 2.09155 6.83004 2.09156H9.16555C9.25397 2.09156 9.33877 2.12669 9.40129 2.18921C9.46382 2.25174 9.49895 2.33654 9.49895 2.42496C9.49895 2.51338 9.46382 2.59819 9.40129 2.66071C9.33877 2.72323 9.25397 2.75836 9.16555 2.75836H6.82996C6.78617 2.75837 6.74282 2.74975 6.70236 2.733C6.66191 2.71625 6.62515 2.69169 6.59419 2.66073C6.56323 2.62977 6.53867 2.59301 6.52192 2.55256C6.50517 2.5121 6.49663 2.46875 6.49664 2.42496ZM3.49828 9.115L4.74082 7.87207C4.77179 7.84113 4.80855 7.8166 4.84901 7.79987C4.88946 7.78314 4.93281 7.77454 4.97659 7.77456C5.02036 7.77459 5.0637 7.78323 5.10414 7.8C5.14457 7.81678 5.18131 7.84135 5.21225 7.87232C5.24318 7.9033 5.26772 7.94006 5.28445 7.98051C5.30118 8.02096 5.30978 8.06431 5.30975 8.10809C5.30973 8.15187 5.30109 8.19521 5.28431 8.23564C5.26754 8.27608 5.24296 8.31281 5.21199 8.34375L3.73375 9.82223C3.67124 9.88466 3.58651 9.91973 3.49816 9.91973C3.40982 9.91973 3.32508 9.88466 3.26258 9.82223L2.49672 9.05586C2.43421 8.99338 2.39908 8.90862 2.39905 8.82024C2.39903 8.73186 2.43412 8.64708 2.4966 8.58457C2.55908 8.52206 2.64384 8.48693 2.73222 8.4869C2.82061 8.48688 2.90538 8.52197 2.96789 8.58445L3.49828 9.115ZM1.35168 10.6253V7.90117C1.35168 7.8574 1.36031 7.81406 1.37707 7.77363C1.39383 7.7332 1.41838 7.69646 1.44934 7.66552C1.4803 7.63458 1.51704 7.61004 1.55749 7.5933C1.59793 7.57656 1.64127 7.56795 1.68504 7.56797H3.49258C3.58097 7.56797 3.66574 7.60308 3.72824 7.66558C3.79075 7.72809 3.82586 7.81286 3.82586 7.90125C3.82586 7.98964 3.79075 8.07441 3.72824 8.13692C3.66574 8.19942 3.58097 8.23453 3.49258 8.23453H2.01824V10.2921H4.07582V9.86574C4.07677 9.77795 4.11231 9.69408 4.17473 9.63233C4.23715 9.57058 4.3214 9.53595 4.4092 9.53595C4.497 9.53595 4.58125 9.57058 4.64367 9.63233C4.70609 9.69408 4.74163 9.77795 4.74258 9.86574V10.6253C4.7426 10.6691 4.734 10.7125 4.71725 10.7529C4.70051 10.7934 4.67595 10.8302 4.64498 10.8611C4.61402 10.8921 4.57726 10.9166 4.5368 10.9334C4.49633 10.9501 4.45297 10.9587 4.40918 10.9587H1.68504C1.64125 10.9587 1.59789 10.9501 1.55743 10.9334C1.51697 10.9166 1.48021 10.8921 1.44925 10.8611C1.41829 10.8302 1.39373 10.7934 1.37699 10.7529C1.36025 10.7125 1.35165 10.6691 1.35168 10.6253ZM5.3382 12.0988C5.33823 12.1426 5.32964 12.1859 5.31291 12.2264C5.29617 12.2668 5.27164 12.3035 5.24069 12.3345C5.20975 12.3654 5.17301 12.39 5.13258 12.4067C5.09214 12.4235 5.0488 12.4321 5.00504 12.432H1.68504C1.64097 12.4325 1.59724 12.4242 1.55638 12.4077C1.51552 12.3912 1.47835 12.3667 1.44702 12.3357C1.41568 12.3047 1.39081 12.2678 1.37383 12.2271C1.35685 12.1864 1.34811 12.1428 1.34811 12.0987C1.34811 12.0547 1.35685 12.011 1.37383 11.9703C1.39081 11.9297 1.41568 11.8928 1.44702 11.8618C1.47835 11.8308 1.51552 11.8063 1.55638 11.7898C1.59724 11.7732 1.64097 11.765 1.68504 11.7654H5.00504C5.04881 11.7654 5.09216 11.774 5.1326 11.7908C5.17303 11.8076 5.20977 11.8321 5.24072 11.8631C5.27166 11.894 5.29619 11.9308 5.31292 11.9713C5.32965 12.0117 5.33824 12.0551 5.3382 12.0988ZM14.1129 10.1712C14.1129 10.215 14.1043 10.2583 14.0876 10.2988C14.0708 10.3393 14.0463 10.376 14.0153 10.407C13.9844 10.4379 13.9476 10.4625 13.9072 10.4792C13.8667 10.496 13.8234 10.5046 13.7796 10.5046H6.82996C6.78589 10.5051 6.74216 10.4968 6.7013 10.4803C6.66045 10.4637 6.62327 10.4393 6.59194 10.4083C6.5606 10.3773 6.53573 10.3404 6.51875 10.2997C6.50177 10.259 6.49303 10.2154 6.49303 10.1713C6.49303 10.1272 6.50177 10.0836 6.51875 10.0429C6.53573 10.0022 6.5606 9.96534 6.59194 9.93434C6.62327 9.90335 6.66045 9.87887 6.7013 9.86234C6.74216 9.8458 6.78589 9.83753 6.82996 9.83801H13.7796C13.8233 9.83798 13.8667 9.84657 13.9071 9.86331C13.9476 9.88004 13.9843 9.90458 14.0153 9.93552C14.0463 9.96647 14.0708 10.0032 14.0876 10.0437C14.1043 10.0841 14.1129 10.1274 14.1129 10.1712ZM6.49664 8.35582C6.49663 8.31204 6.50525 8.26868 6.522 8.22823C6.53875 8.18778 6.56331 8.15102 6.59427 8.12006C6.62523 8.0891 6.66199 8.06455 6.70244 8.0478C6.7429 8.03106 6.78626 8.02245 6.83004 8.02246H9.16555C9.25394 8.02246 9.33871 8.05758 9.40121 8.12008C9.46371 8.18258 9.49883 8.26735 9.49883 8.35574C9.49883 8.44413 9.46371 8.52891 9.40121 8.59141C9.33871 8.65391 9.25394 8.68902 9.16555 8.68902H6.82996C6.74157 8.68903 6.65679 8.65394 6.59427 8.59145C6.53175 8.52897 6.49668 8.44421 6.49664 8.35582ZM3.49828 15.0455L4.74082 13.8029C4.77176 13.772 4.80849 13.7475 4.84892 13.7307C4.88934 13.714 4.93267 13.7054 4.97642 13.7054C5.02017 13.7054 5.0635 13.714 5.10392 13.7307C5.14434 13.7475 5.18107 13.772 5.21201 13.8029C5.24295 13.8339 5.26749 13.8706 5.28423 13.911C5.30097 13.9515 5.30959 13.9948 5.30959 14.0385C5.30959 14.0823 5.30097 14.1256 5.28422 14.1661C5.26748 14.2065 5.24293 14.2432 5.21199 14.2741L3.73375 15.7526C3.67124 15.815 3.58651 15.8501 3.49816 15.8501C3.40982 15.8501 3.32508 15.815 3.26258 15.7526L2.49672 14.9867C2.46538 14.9559 2.44045 14.9191 2.42337 14.8786C2.40629 14.838 2.3974 14.7945 2.39722 14.7505C2.39703 14.7066 2.40555 14.663 2.42228 14.6223C2.43901 14.5816 2.46363 14.5447 2.49471 14.5135C2.52579 14.4824 2.56272 14.4578 2.60338 14.441C2.64403 14.4242 2.6876 14.4156 2.73159 14.4157C2.77557 14.4159 2.81909 14.4247 2.85965 14.4417C2.90021 14.4587 2.93699 14.4836 2.96789 14.5149L3.49828 15.0455ZM1.35168 16.5564V13.832C1.35167 13.7883 1.36029 13.7449 1.37704 13.7045C1.39379 13.664 1.41835 13.6273 1.4493 13.5963C1.48026 13.5654 1.51702 13.5409 1.55747 13.5241C1.59792 13.5074 1.64127 13.4988 1.68504 13.4988H3.49258C3.58097 13.4988 3.66574 13.5339 3.72824 13.5964C3.79075 13.6589 3.82586 13.7437 3.82586 13.8321C3.82586 13.9205 3.79075 14.0053 3.72824 14.0678C3.66574 14.1303 3.58097 14.1654 3.49258 14.1654H2.01824V16.2229H4.07582V15.7969C4.07534 15.7528 4.08361 15.7091 4.10015 15.6682C4.11669 15.6273 4.14117 15.5901 4.17218 15.5588C4.20318 15.5275 4.2401 15.5026 4.28078 15.4856C4.32147 15.4686 4.36511 15.4599 4.4092 15.4599C4.45329 15.4599 4.49693 15.4686 4.53762 15.4856C4.5783 15.5026 4.61522 15.5275 4.64622 15.5588C4.67722 15.5901 4.7017 15.6273 4.71825 15.6682C4.73479 15.7091 4.74306 15.7528 4.74258 15.7969V16.5564C4.74257 16.6002 4.73394 16.6436 4.71719 16.684C4.70043 16.7244 4.67587 16.7612 4.6449 16.7921C4.61394 16.8231 4.57719 16.8476 4.53674 16.8643C4.4963 16.8811 4.45295 16.8897 4.40918 16.8896H1.68504C1.64127 16.8897 1.59793 16.8811 1.55749 16.8643C1.51704 16.8476 1.4803 16.823 1.44934 16.7921C1.41838 16.7612 1.39383 16.7244 1.37707 16.684C1.36031 16.6436 1.35168 16.6001 1.35168 16.5564ZM5.3382 18.0293C5.33822 18.0731 5.32961 18.1164 5.31287 18.1569C5.29614 18.1973 5.2716 18.234 5.24066 18.265C5.20972 18.2959 5.17298 18.3205 5.13256 18.3372C5.09213 18.3539 5.0488 18.3625 5.00504 18.3625H1.68504C1.64097 18.363 1.59724 18.3547 1.55638 18.3382C1.51552 18.3217 1.47835 18.2972 1.44702 18.2662C1.41568 18.2352 1.39081 18.1983 1.37383 18.1576C1.35685 18.117 1.34811 18.0733 1.34811 18.0292C1.34811 17.9852 1.35685 17.9415 1.37383 17.9009C1.39081 17.8602 1.41568 17.8233 1.44702 17.7923C1.47835 17.7613 1.51552 17.7368 1.55638 17.7203C1.59724 17.7037 1.64097 17.6955 1.68504 17.6959H5.00504C5.04882 17.6959 5.09217 17.7045 5.13262 17.7213C5.17307 17.738 5.20982 17.7626 5.24076 17.7935C5.27171 17.8245 5.29624 17.8613 5.31296 17.9017C5.32968 17.9422 5.33826 17.9856 5.3382 18.0293ZM14.1129 16.1016C14.1129 16.1453 14.1043 16.1887 14.0876 16.2291C14.0708 16.2696 14.0463 16.3063 14.0153 16.3373C13.9844 16.3683 13.9476 16.3928 13.9072 16.4096C13.8667 16.4263 13.8233 16.4349 13.7796 16.4349H6.82996C6.78588 16.4354 6.74214 16.4271 6.70127 16.4106C6.6604 16.394 6.62322 16.3696 6.59188 16.3386C6.56054 16.3076 6.53566 16.2706 6.51868 16.23C6.5017 16.1893 6.49295 16.1456 6.49295 16.1015C6.49295 16.0575 6.5017 16.0138 6.51868 15.9731C6.53566 15.9324 6.56054 15.8955 6.59188 15.8645C6.62322 15.8335 6.6604 15.809 6.70127 15.7925C6.74214 15.776 6.78588 15.7677 6.82996 15.7682H13.7796C13.8234 15.7682 13.8667 15.7768 13.9072 15.7935C13.9476 15.8103 13.9844 15.8348 14.0153 15.8658C14.0463 15.8968 14.0708 15.9335 14.0876 15.974C14.1043 16.0144 14.1129 16.0578 14.1129 16.1016ZM6.49664 14.2863C6.49667 14.1979 6.5318 14.1132 6.59431 14.0507C6.65682 13.9882 6.74158 13.9531 6.82996 13.9531H9.16547C9.25324 13.9541 9.33709 13.9896 9.39882 14.052C9.46056 14.1144 9.49518 14.1986 9.49518 14.2864C9.49518 14.3742 9.46056 14.4584 9.39882 14.5208C9.33709 14.5832 9.25324 14.6188 9.16547 14.6197H6.82996C6.78617 14.6198 6.74281 14.6111 6.70236 14.5944C6.6619 14.5777 6.62514 14.5531 6.59418 14.5221C6.56323 14.4912 6.53867 14.4544 6.52194 14.4139C6.5052 14.3735 6.4966 14.3301 6.49664 14.2863Z" />
<path fill-rule="evenodd" clip-rule="evenodd" d="M16.5421 0.602109L19.8871 2.92242H16.5421V0.602109ZM0 20H20V3.58906H16.2089C16.1205 3.58905 16.0358 3.55395 15.9733 3.49147C15.9108 3.42899 15.8757 3.34426 15.8757 3.2559V0H0V20ZM3.49828 3.18414L4.74082 1.94141C4.80333 1.87892 4.8881 1.84383 4.97648 1.84385C5.06486 1.84387 5.14961 1.879 5.21209 1.9415C5.27457 2.00401 5.30966 2.08878 5.30964 2.17716C5.30963 2.26554 5.2745 2.35029 5.21199 2.41277L3.73375 3.89121C3.67124 3.95365 3.58651 3.98872 3.49816 3.98872C3.40982 3.98872 3.32508 3.95365 3.26258 3.89121L2.49672 3.12535C2.43418 3.06287 2.39902 2.9781 2.39898 2.8897C2.39894 2.8013 2.43402 2.7165 2.4965 2.65396C2.55898 2.59143 2.64375 2.55627 2.73215 2.55623C2.82055 2.55619 2.90535 2.59127 2.96789 2.65375L3.49828 3.18414ZM1.35168 4.695V1.97086C1.35167 1.92708 1.36028 1.88372 1.37703 1.84327C1.39378 1.80282 1.41834 1.76606 1.44929 1.7351C1.48025 1.70414 1.517 1.67958 1.55745 1.66283C1.5979 1.64608 1.64126 1.63746 1.68504 1.63746H3.49258C3.58035 1.63841 3.6642 1.67395 3.72593 1.73635C3.78767 1.79875 3.82229 1.88298 3.82229 1.97076C3.82229 2.05854 3.78767 2.14277 3.72593 2.20518C3.6642 2.26758 3.58035 2.30311 3.49258 2.30406H2.01824V4.36164H4.07582V3.93543C4.07534 3.89135 4.08361 3.84761 4.10015 3.80674C4.11669 3.76587 4.14117 3.72869 4.17218 3.69735C4.20318 3.66601 4.2401 3.64113 4.28078 3.62415C4.32147 3.60717 4.36511 3.59842 4.4092 3.59842C4.45329 3.59842 4.49693 3.60717 4.53762 3.62415C4.5783 3.64113 4.61522 3.66601 4.64622 3.69735C4.67722 3.72869 4.7017 3.76587 4.71825 3.80674C4.73479 3.84761 4.74306 3.89135 4.74258 3.93543V4.695C4.74259 4.73878 4.73397 4.78212 4.71722 4.82257C4.70046 4.86301 4.6759 4.89976 4.64494 4.9307C4.61398 4.96165 4.57722 4.98619 4.53676 5.00292C4.49631 5.01965 4.45296 5.02824 4.40918 5.0282H1.68504C1.64127 5.02823 1.59792 5.01964 1.55747 5.0029C1.51702 4.98617 1.48026 4.96163 1.4493 4.93069C1.41835 4.89974 1.39379 4.863 1.37704 4.82256C1.36029 4.78212 1.35167 4.73877 1.35168 4.695ZM5.3382 6.16797C5.33822 6.21173 5.32961 6.25506 5.31287 6.29549C5.29614 6.33592 5.2716 6.37266 5.24066 6.4036C5.20972 6.43454 5.17298 6.45909 5.13256 6.47583C5.09213 6.49257 5.0488 6.50118 5.00504 6.50117H1.68504C1.59665 6.50117 1.51188 6.46606 1.44937 6.40356C1.38687 6.34105 1.35176 6.25628 1.35176 6.16789C1.35176 6.0795 1.38687 5.99473 1.44937 5.93223C1.51188 5.86972 1.59665 5.83461 1.68504 5.83461H5.00504C5.04881 5.8346 5.09215 5.84322 5.13259 5.85997C5.17303 5.87672 5.20977 5.90128 5.24071 5.93224C5.27166 5.9632 5.29619 5.99995 5.31292 6.0404C5.32965 6.08085 5.33824 6.1242 5.3382 6.16797ZM14.1129 4.24035C14.1129 4.28414 14.1043 4.32749 14.0876 4.36795C14.0708 4.4084 14.0463 4.44516 14.0153 4.47612C13.9844 4.50708 13.9476 4.53164 13.9072 4.54839C13.8667 4.56514 13.8234 4.57376 13.7796 4.57375H6.82996C6.78589 4.57423 6.74216 4.56596 6.7013 4.54942C6.66045 4.53289 6.62327 4.50841 6.59194 4.47741C6.5606 4.44642 6.53573 4.40951 6.51875 4.36884C6.50177 4.32816 6.49303 4.28452 6.49303 4.24045C6.49303 4.19637 6.50177 4.15274 6.51875 4.11206C6.53573 4.07138 6.5606 4.03448 6.59194 4.00348C6.62327 3.97249 6.66045 3.94801 6.7013 3.93148C6.74216 3.91494 6.78589 3.90667 6.82996 3.90715H13.7796C13.8233 3.90713 13.8667 3.91574 13.9071 3.93248C13.9476 3.94922 13.9843 3.97376 14.0153 4.0047C14.0462 4.03564 14.0708 4.07238 14.0875 4.11281C14.1043 4.15324 14.1129 4.19658 14.1129 4.24035ZM6.49664 2.42496C6.49663 2.38118 6.50525 2.33782 6.522 2.29736C6.53875 2.25691 6.56331 2.22015 6.59427 2.18919C6.62523 2.15823 6.66199 2.13367 6.70244 2.11692C6.7429 2.10017 6.78625 2.09155 6.83004 2.09156H9.16555C9.25397 2.09156 9.33877 2.12669 9.40129 2.18921C9.46382 2.25174 9.49895 2.33654 9.49895 2.42496C9.49895 2.51338 9.46382 2.59819 9.40129 2.66071C9.33877 2.72323 9.25397 2.75836 9.16555 2.75836H6.82996C6.78617 2.75837 6.74282 2.74975 6.70236 2.733C6.66191 2.71625 6.62515 2.69169 6.59419 2.66073C6.56323 2.62977 6.53867 2.59301 6.52192 2.55256C6.50517 2.5121 6.49663 2.46875 6.49664 2.42496ZM3.49828 9.115L4.74082 7.87207C4.77179 7.84113 4.80855 7.8166 4.84901 7.79987C4.88946 7.78314 4.93281 7.77454 4.97659 7.77456C5.02036 7.77459 5.0637 7.78323 5.10414 7.8C5.14457 7.81678 5.18131 7.84135 5.21225 7.87232C5.24318 7.9033 5.26772 7.94006 5.28445 7.98051C5.30118 8.02096 5.30978 8.06431 5.30975 8.10809C5.30973 8.15187 5.30109 8.19521 5.28431 8.23564C5.26754 8.27608 5.24296 8.31281 5.21199 8.34375L3.73375 9.82223C3.67124 9.88466 3.58651 9.91973 3.49816 9.91973C3.40982 9.91973 3.32508 9.88466 3.26258 9.82223L2.49672 9.05586C2.43421 8.99338 2.39908 8.90862 2.39905 8.82024C2.39903 8.73186 2.43412 8.64708 2.4966 8.58457C2.55908 8.52206 2.64384 8.48693 2.73222 8.4869C2.82061 8.48688 2.90538 8.52197 2.96789 8.58445L3.49828 9.115ZM1.35168 10.6253V7.90117C1.35168 7.8574 1.36031 7.81406 1.37707 7.77363C1.39383 7.7332 1.41838 7.69646 1.44934 7.66552C1.4803 7.63458 1.51704 7.61004 1.55749 7.5933C1.59793 7.57656 1.64127 7.56795 1.68504 7.56797H3.49258C3.58097 7.56797 3.66574 7.60308 3.72824 7.66558C3.79075 7.72809 3.82586 7.81286 3.82586 7.90125C3.82586 7.98964 3.79075 8.07441 3.72824 8.13692C3.66574 8.19942 3.58097 8.23453 3.49258 8.23453H2.01824V10.2921H4.07582V9.86574C4.07677 9.77795 4.11231 9.69408 4.17473 9.63233C4.23715 9.57058 4.3214 9.53595 4.4092 9.53595C4.497 9.53595 4.58125 9.57058 4.64367 9.63233C4.70609 9.69408 4.74163 9.77795 4.74258 9.86574V10.6253C4.7426 10.6691 4.734 10.7125 4.71725 10.7529C4.70051 10.7934 4.67595 10.8302 4.64498 10.8611C4.61402 10.8921 4.57726 10.9166 4.5368 10.9334C4.49633 10.9501 4.45297 10.9587 4.40918 10.9587H1.68504C1.64125 10.9587 1.59789 10.9501 1.55743 10.9334C1.51697 10.9166 1.48021 10.8921 1.44925 10.8611C1.41829 10.8302 1.39373 10.7934 1.37699 10.7529C1.36025 10.7125 1.35165 10.6691 1.35168 10.6253ZM5.3382 12.0988C5.33823 12.1426 5.32964 12.1859 5.31291 12.2264C5.29617 12.2668 5.27164 12.3035 5.24069 12.3345C5.20975 12.3654 5.17301 12.39 5.13258 12.4067C5.09214 12.4235 5.0488 12.4321 5.00504 12.432H1.68504C1.64097 12.4325 1.59724 12.4242 1.55638 12.4077C1.51552 12.3912 1.47835 12.3667 1.44702 12.3357C1.41568 12.3047 1.39081 12.2678 1.37383 12.2271C1.35685 12.1864 1.34811 12.1428 1.34811 12.0987C1.34811 12.0547 1.35685 12.011 1.37383 11.9703C1.39081 11.9297 1.41568 11.8928 1.44702 11.8618C1.47835 11.8308 1.51552 11.8063 1.55638 11.7898C1.59724 11.7732 1.64097 11.765 1.68504 11.7654H5.00504C5.04881 11.7654 5.09216 11.774 5.1326 11.7908C5.17303 11.8076 5.20977 11.8321 5.24072 11.8631C5.27166 11.894 5.29619 11.9308 5.31292 11.9713C5.32965 12.0117 5.33824 12.0551 5.3382 12.0988ZM14.1129 10.1712C14.1129 10.215 14.1043 10.2583 14.0876 10.2988C14.0708 10.3393 14.0463 10.376 14.0153 10.407C13.9844 10.4379 13.9476 10.4625 13.9072 10.4792C13.8667 10.496 13.8234 10.5046 13.7796 10.5046H6.82996C6.78589 10.5051 6.74216 10.4968 6.7013 10.4803C6.66045 10.4637 6.62327 10.4393 6.59194 10.4083C6.5606 10.3773 6.53573 10.3404 6.51875 10.2997C6.50177 10.259 6.49303 10.2154 6.49303 10.1713C6.49303 10.1272 6.50177 10.0836 6.51875 10.0429C6.53573 10.0022 6.5606 9.96534 6.59194 9.93434C6.62327 9.90335 6.66045 9.87887 6.7013 9.86234C6.74216 9.8458 6.78589 9.83753 6.82996 9.83801H13.7796C13.8233 9.83798 13.8667 9.84657 13.9071 9.86331C13.9476 9.88004 13.9843 9.90458 14.0153 9.93552C14.0463 9.96647 14.0708 10.0032 14.0876 10.0437C14.1043 10.0841 14.1129 10.1274 14.1129 10.1712ZM6.49664 8.35582C6.49663 8.31204 6.50525 8.26868 6.522 8.22823C6.53875 8.18778 6.56331 8.15102 6.59427 8.12006C6.62523 8.0891 6.66199 8.06455 6.70244 8.0478C6.7429 8.03106 6.78626 8.02245 6.83004 8.02246H9.16555C9.25394 8.02246 9.33871 8.05758 9.40121 8.12008C9.46371 8.18258 9.49883 8.26735 9.49883 8.35574C9.49883 8.44413 9.46371 8.52891 9.40121 8.59141C9.33871 8.65391 9.25394 8.68902 9.16555 8.68902H6.82996C6.74157 8.68903 6.65679 8.65394 6.59427 8.59145C6.53175 8.52897 6.49668 8.44421 6.49664 8.35582ZM3.49828 15.0455L4.74082 13.8029C4.77176 13.772 4.80849 13.7475 4.84892 13.7307C4.88934 13.714 4.93267 13.7054 4.97642 13.7054C5.02017 13.7054 5.0635 13.714 5.10392 13.7307C5.14434 13.7475 5.18107 13.772 5.21201 13.8029C5.24295 13.8339 5.26749 13.8706 5.28423 13.911C5.30097 13.9515 5.30959 13.9948 5.30959 14.0385C5.30959 14.0823 5.30097 14.1256 5.28422 14.1661C5.26748 14.2065 5.24293 14.2432 5.21199 14.2741L3.73375 15.7526C3.67124 15.815 3.58651 15.8501 3.49816 15.8501C3.40982 15.8501 3.32508 15.815 3.26258 15.7526L2.49672 14.9867C2.46538 14.9559 2.44045 14.9191 2.42337 14.8786C2.40629 14.838 2.3974 14.7945 2.39722 14.7505C2.39703 14.7066 2.40555 14.663 2.42228 14.6223C2.43901 14.5816 2.46363 14.5447 2.49471 14.5135C2.52579 14.4824 2.56272 14.4578 2.60338 14.441C2.64403 14.4242 2.6876 14.4156 2.73159 14.4157C2.77557 14.4159 2.81909 14.4247 2.85965 14.4417C2.90021 14.4587 2.93699 14.4836 2.96789 14.5149L3.49828 15.0455ZM1.35168 16.5564V13.832C1.35167 13.7883 1.36029 13.7449 1.37704 13.7045C1.39379 13.664 1.41835 13.6273 1.4493 13.5963C1.48026 13.5654 1.51702 13.5409 1.55747 13.5241C1.59792 13.5074 1.64127 13.4988 1.68504 13.4988H3.49258C3.58097 13.4988 3.66574 13.5339 3.72824 13.5964C3.79075 13.6589 3.82586 13.7437 3.82586 13.8321C3.82586 13.9205 3.79075 14.0053 3.72824 14.0678C3.66574 14.1303 3.58097 14.1654 3.49258 14.1654H2.01824V16.2229H4.07582V15.7969C4.07534 15.7528 4.08361 15.7091 4.10015 15.6682C4.11669 15.6273 4.14117 15.5901 4.17218 15.5588C4.20318 15.5275 4.2401 15.5026 4.28078 15.4856C4.32147 15.4686 4.36511 15.4599 4.4092 15.4599C4.45329 15.4599 4.49693 15.4686 4.53762 15.4856C4.5783 15.5026 4.61522 15.5275 4.64622 15.5588C4.67722 15.5901 4.7017 15.6273 4.71825 15.6682C4.73479 15.7091 4.74306 15.7528 4.74258 15.7969V16.5564C4.74257 16.6002 4.73394 16.6436 4.71719 16.684C4.70043 16.7244 4.67587 16.7612 4.6449 16.7921C4.61394 16.8231 4.57719 16.8476 4.53674 16.8643C4.4963 16.8811 4.45295 16.8897 4.40918 16.8896H1.68504C1.64127 16.8897 1.59793 16.8811 1.55749 16.8643C1.51704 16.8476 1.4803 16.823 1.44934 16.7921C1.41838 16.7612 1.39383 16.7244 1.37707 16.684C1.36031 16.6436 1.35168 16.6001 1.35168 16.5564ZM5.3382 18.0293C5.33822 18.0731 5.32961 18.1164 5.31287 18.1569C5.29614 18.1973 5.2716 18.234 5.24066 18.265C5.20972 18.2959 5.17298 18.3205 5.13256 18.3372C5.09213 18.3539 5.0488 18.3625 5.00504 18.3625H1.68504C1.64097 18.363 1.59724 18.3547 1.55638 18.3382C1.51552 18.3217 1.47835 18.2972 1.44702 18.2662C1.41568 18.2352 1.39081 18.1983 1.37383 18.1576C1.35685 18.117 1.34811 18.0733 1.34811 18.0292C1.34811 17.9852 1.35685 17.9415 1.37383 17.9009C1.39081 17.8602 1.41568 17.8233 1.44702 17.7923C1.47835 17.7613 1.51552 17.7368 1.55638 17.7203C1.59724 17.7037 1.64097 17.6955 1.68504 17.6959H5.00504C5.04882 17.6959 5.09217 17.7045 5.13262 17.7213C5.17307 17.738 5.20982 17.7626 5.24076 17.7935C5.27171 17.8245 5.29624 17.8613 5.31296 17.9017C5.32968 17.9422 5.33826 17.9856 5.3382 18.0293ZM14.1129 16.1016C14.1129 16.1453 14.1043 16.1887 14.0876 16.2291C14.0708 16.2696 14.0463 16.3063 14.0153 16.3373C13.9844 16.3683 13.9476 16.3928 13.9072 16.4096C13.8667 16.4263 13.8233 16.4349 13.7796 16.4349H6.82996C6.78588 16.4354 6.74214 16.4271 6.70127 16.4106C6.6604 16.394 6.62322 16.3696 6.59188 16.3386C6.56054 16.3076 6.53566 16.2706 6.51868 16.23C6.5017 16.1893 6.49295 16.1456 6.49295 16.1015C6.49295 16.0575 6.5017 16.0138 6.51868 15.9731C6.53566 15.9324 6.56054 15.8955 6.59188 15.8645C6.62322 15.8335 6.6604 15.809 6.70127 15.7925C6.74214 15.776 6.78588 15.7677 6.82996 15.7682H13.7796C13.8234 15.7682 13.8667 15.7768 13.9072 15.7935C13.9476 15.8103 13.9844 15.8348 14.0153 15.8658C14.0463 15.8968 14.0708 15.9335 14.0876 15.974C14.1043 16.0144 14.1129 16.0578 14.1129 16.1016ZM6.49664 14.2863C6.49667 14.1979 6.5318 14.1132 6.59431 14.0507C6.65682 13.9882 6.74158 13.9531 6.82996 13.9531H9.16547C9.25324 13.9541 9.33709 13.9896 9.39882 14.052C9.46056 14.1144 9.49518 14.1986 9.49518 14.2864C9.49518 14.3742 9.46056 14.4584 9.39882 14.5208C9.33709 14.5832 9.25324 14.6188 9.16547 14.6197H6.82996C6.78617 14.6198 6.74281 14.6111 6.70236 14.5944C6.6619 14.5777 6.62514 14.5531 6.59418 14.5221C6.56323 14.4912 6.53867 14.4544 6.52194 14.4139C6.5052 14.3735 6.4966 14.3301 6.49664 14.2863Z"/>
</svg>
