<svg width="20" height="20" viewBox="0 0 20 20"  xmlns="http://www.w3.org/2000/svg">
<path fill-rule="evenodd" clip-rule="evenodd" d="M2.86597 18.3333H6.82901C7.368 18.3327 7.88475 18.1184 8.26587 17.7372C8.64699 17.3561 8.86137 16.8394 8.86197 16.3004V12.3368C8.86125 11.7979 8.64681 11.2813 8.2657 10.9003C7.88459 10.5192 7.36791 10.3049 6.82901 10.3044H2.86597C2.32706 10.3049 1.81038 10.5192 1.42927 10.9002C1.04815 11.2813 0.833719 11.7979 0.833008 12.3368L0.833008 16.3004C0.833605 16.8394 1.04798 17.3561 1.42911 17.7372C1.81023 18.1184 2.32698 18.3327 2.86597 18.3333ZM15.1559 0C14.3627 0 13.5874 0.235207 12.9279 0.675877C12.2683 1.11655 11.7543 1.74289 11.4508 2.4757C11.1472 3.2085 11.0678 4.01486 11.2226 4.79281C11.3773 5.57075 11.7593 6.28534 12.3201 6.84621C12.881 7.40708 13.5956 7.78903 14.3735 7.94377C15.1515 8.09852 15.9578 8.0191 16.6906 7.71556C17.4235 7.41202 18.0498 6.89799 18.4905 6.23848C18.9311 5.57897 19.1663 4.8036 19.1663 4.01042C19.1651 2.94718 18.7421 1.92786 17.9903 1.17604C17.2385 0.424215 16.2192 0.00127927 15.1559 0ZM2.86597 8.02896H6.82901C7.36798 8.02831 7.88469 7.81391 8.26581 7.4328C8.64692 7.05169 8.86131 6.53498 8.86197 5.996V2.03267C8.86131 1.49373 8.6469 0.977052 8.26578 0.595987C7.88466 0.214923 7.36795 0.000587493 6.82901 0L2.86597 0C2.32702 0.000587493 1.81032 0.214923 1.4292 0.595987C1.04808 0.977052 0.833671 1.49373 0.833008 2.03267L0.833008 5.996C0.833662 6.53498 1.04806 7.05169 1.42917 7.4328C1.81028 7.81391 2.32699 8.02831 2.86597 8.02896ZM17.1334 10.3044H13.1701C12.6312 10.3049 12.1145 10.5192 11.7334 10.9002C11.3523 11.2813 11.1378 11.7979 11.1371 12.3368V16.3004C11.1377 16.8394 11.3521 17.3561 11.7332 17.7372C12.1144 18.1184 12.6311 18.3327 13.1701 18.3333H17.1334C17.6724 18.3327 18.1891 18.1183 18.5702 17.7372C18.9513 17.3561 19.1657 16.8393 19.1663 16.3004V12.3368C19.1656 11.7979 18.9511 11.2813 18.57 10.9003C18.1889 10.5193 17.6723 10.305 17.1334 10.3044Z"/>
</svg>
