<svg width="18" height="20" viewBox="0 0 18 20" fill="none" xmlns="http://www.w3.org/2000/svg">
<path d="M17.9935 11.7686C18.0018 11.5304 17.789 11.3473 17.6364 11.1682C17.3685 10.085 16.8374 8.8441 16.0665 7.61271C14.8304 5.63978 11.5591 2.45883 10.3166 1.96818C10.2539 1.9436 10.1981 1.92973 10.1465 1.91824C10.0225 1.51676 9.9567 1.24131 9.47357 0.91909C8.14428 0.0328963 6.66003 -0.216791 5.67753 0.188654C4.69423 0.5941 4.14809 2.83891 5.20589 3.607C6.21495 4.34298 8.21126 2.85873 8.85015 3.80873C9.48784 4.75834 10.1921 7.92026 11.3621 9.94114C11.0664 9.90072 10.762 9.87932 10.4478 9.87932C9.09785 9.87932 7.88469 10.2749 7.02743 10.907C6.29422 9.7628 5.01407 9.00224 3.55399 9.00224C2.04001 9.00224 0.723797 9.82026 0.00683594 11.0354V20H1.94053L2.35351 19.2672C3.6828 18.7571 5.25464 17.4413 6.34693 16.0383C10.7121 17.7512 17.8956 14.5806 17.9935 11.7686Z" />
</svg>
