<svg width="18" height="18" viewBox="0 0 18 18" fill="none" xmlns="http://www.w3.org/2000/svg">
<path fill-rule="evenodd" clip-rule="evenodd" d="M11.0265 15.9267L11.0345 15.9314C12.4932 16.8601 14.4012 16.6508 15.6239 15.4281L16.1399 14.9121C16.6198 14.4316 16.6198 13.6532 16.1399 13.1727L13.9659 11.0001C13.4854 10.5202 12.707 10.5202 12.2265 11.0001V11.0001C11.9961 11.2308 11.6833 11.3605 11.3572 11.3605C11.0311 11.3605 10.7183 11.2308 10.4879 11.0001L7.00921 7.52074C6.52933 7.04026 6.52933 6.26189 7.00921 5.78141V5.78141C7.23996 5.55095 7.36961 5.2382 7.36961 4.91208C7.36961 4.58595 7.23996 4.27321 7.00921 4.04274L4.83588 1.86674C4.3554 1.38687 3.57702 1.38687 3.09654 1.86674L2.58054 2.38274C1.35807 3.60551 1.14857 5.51315 2.07654 6.97208L2.08188 6.98008C4.46415 10.5066 7.50052 13.5437 11.0265 15.9267V15.9267Z" stroke="white" stroke-width="1.5" stroke-linecap="round" stroke-linejoin="round"/>
</svg>
