<svg width="20" height="20" viewBox="0 0 20 20" fill="none" xmlns="http://www.w3.org/2000/svg">
<path fill-rule="evenodd" clip-rule="evenodd" d="M4.91395 6.73854C4.91378 7.8917 5.22085 9.01901 5.79632 9.97791C6.37179 10.9368 7.18982 11.6843 8.14695 12.1257C9.10408 12.5671 10.1573 12.6828 11.1735 12.4579C12.1897 12.2331 13.1231 11.678 13.8558 10.8627C14.5885 10.0473 15.0875 9.00853 15.2897 7.87756C15.492 6.74659 15.3884 5.57427 14.992 4.50885C14.5956 3.44343 13.9243 2.53276 13.0629 1.89202C12.2015 1.25127 11.1887 0.909217 10.1527 0.909119C8.76392 0.910851 7.43248 1.52558 6.45039 2.61847C5.46831 3.71136 4.91576 5.19282 4.91395 6.73854ZM19.5002 19.7515L19.6792 20.2093L19.9468 19.8086C20.1255 19.5417 20.3212 19.2894 20.5325 19.0538C21.4773 17.9974 22.68 17.3081 23.9857 16.9922L24.7041 16.8183L24.0469 16.4513C23.2911 16.0308 22.6854 15.3379 22.3284 14.4855C21.9714 13.633 21.8842 12.6712 22.0809 11.7566C22.2776 10.8419 22.7466 10.0283 23.4117 9.44813C24.0767 8.86796 24.8986 8.5554 25.7435 8.56134C26.5885 8.56727 27.4068 8.89134 28.0652 9.4808C28.7236 10.0703 29.1834 10.8904 29.3697 11.8077C29.556 12.7251 29.4579 13.6856 29.0913 14.533C28.7247 15.3803 28.1112 16.0646 27.3507 16.4745L26.7058 16.8231L27.4019 17.0148C28.9209 17.4357 30.27 18.4094 31.2348 19.7814C32.1997 21.1533 32.725 22.8448 32.7273 24.5871C32.7274 24.701 32.7073 24.8138 32.6682 24.9191C32.6291 25.0243 32.5717 25.12 32.4994 25.2005C32.4271 25.2811 32.3412 25.345 32.2466 25.3886C32.1521 25.4322 32.0507 25.4546 31.9484 25.4546H0.779382C0.677009 25.4547 0.575623 25.4323 0.481026 25.3887C0.386429 25.3452 0.300478 25.2813 0.228088 25.2007C0.155699 25.1201 0.0982938 25.0245 0.059156 24.9192C0.0200181 24.8139 -8.38018e-05 24.701 2.62574e-07 24.5871C2.62574e-07 18.3567 4.55504 13.2884 10.1527 13.2884C12.9287 13.2884 15.5957 14.3873 17.5653 16.5867C18.3822 17.4979 19.0385 18.5713 19.5002 19.7515Z"/>
</svg>
