<svg width="24" height="24" viewBox="0 0 24 24" fill="none" xmlns="http://www.w3.org/2000/svg">
<path fill-rule="evenodd" clip-rule="evenodd" d="M12.7293 1.20356L16.0753 7.83256L22.5153 8.47056C22.8284 8.49657 23.0977 8.70232 23.2051 8.99751C23.3125 9.29271 23.2384 9.62343 23.0153 9.84456L17.7153 15.0976L19.6803 22.2356C19.7624 22.5448 19.6555 22.8735 19.4072 23.0752C19.1588 23.277 18.8152 23.3143 18.5293 23.1706L12.0003 19.9376L5.48031 23.1666C5.19444 23.3103 4.85083 23.273 4.60247 23.0712C4.35411 22.8695 4.24719 22.5408 4.32931 22.2316L6.29431 15.0936L0.990311 9.84056C0.767192 9.61943 0.693085 9.28871 0.800507 8.99351C0.90793 8.69831 1.17726 8.49257 1.49031 8.46656L7.93031 7.82856L11.2713 1.20356C11.4114 0.929941 11.6929 0.757812 12.0003 0.757812C12.3077 0.757812 12.5892 0.929941 12.7293 1.20356Z" stroke="#D5D5D5" stroke-width="1.5" stroke-linecap="round" stroke-linejoin="round"/>
</svg>
