<svg width="18" height="18" viewBox="0 0 18 18" fill="transparent" xmlns="http://www.w3.org/2000/svg">
<path fill-rule="evenodd" clip-rule="evenodd" d="M9.48637 1.80009L11.717 6.21943L16.0104 6.64476C16.2191 6.6621 16.3986 6.79926 16.4702 6.99606C16.5419 7.19286 16.4925 7.41334 16.3437 7.56076L12.8104 11.0628L14.1204 15.8214C14.1751 16.0276 14.1038 16.2467 13.9383 16.3812C13.7727 16.5157 13.5436 16.5406 13.353 16.4448L9.00037 14.2894L4.6537 16.4421C4.46312 16.5379 4.23405 16.5131 4.06848 16.3786C3.9029 16.244 3.83162 16.0249 3.88637 15.8188L5.19637 11.0601L1.66037 7.55809C1.51162 7.41067 1.46222 7.19019 1.53383 6.9934C1.60545 6.7966 1.785 6.65944 1.9937 6.64209L6.28704 6.21676L8.51437 1.80009C8.60777 1.61768 8.79544 1.50293 9.00037 1.50293C9.2053 1.50293 9.39297 1.61768 9.48637 1.80009Z" stroke="#BFFF41" stroke-width="1.5" stroke-linecap="round" stroke-linejoin="round"/>
</svg>
