<svg width="20" height="20" viewBox="0 0 20 20" fill="none" xmlns="http://www.w3.org/2000/svg">
<path fill-rule="evenodd" clip-rule="evenodd" d="M1.09442 4.7499C1.09429 5.68951 1.33313 6.60806 1.78071 7.38939C2.2283 8.17072 2.86454 8.77974 3.60898 9.13943C4.35341 9.49913 5.1726 9.59334 5.96296 9.41015C6.75331 9.22696 7.47933 8.77461 8.0492 8.11029C8.61906 7.44597 9.00719 6.59952 9.16448 5.67799C9.32178 4.75646 9.24119 3.80123 8.93289 2.93311C8.62459 2.06499 8.10245 1.32297 7.43248 0.800879C6.76251 0.278788 5.9748 8.0271e-05 5.16899 0C4.08885 0.00141116 3.05328 0.502302 2.28943 1.39281C1.52559 2.28331 1.09583 3.49043 1.09442 4.7499ZM12.4393 15.3531L12.5785 15.7261L12.7867 15.3996C12.9256 15.1821 13.0779 14.9765 13.2422 14.7845C13.977 13.9238 14.9125 13.3621 15.928 13.1047L16.4868 12.9631L15.9756 12.664C15.3877 12.3213 14.9167 11.7568 14.639 11.0622C14.3614 10.3676 14.2935 9.58394 14.4465 8.83867C14.5995 8.0934 14.9643 7.43044 15.4815 6.95771C15.9988 6.48498 16.638 6.23031 17.2952 6.23514C17.9524 6.23997 18.5889 6.50403 19.101 6.98433C19.6131 7.46464 19.9707 8.1329 20.1156 8.88036C20.2605 9.62782 20.1841 10.4105 19.899 11.1009C19.6139 11.7913 19.1367 12.3489 18.5452 12.6829L18.0437 12.9669L18.585 13.1232C19.7665 13.4661 20.8158 14.2595 21.5662 15.3774C22.3167 16.4953 22.7252 17.8735 22.727 19.2932C22.7271 19.386 22.7115 19.4779 22.6811 19.5637C22.6507 19.6494 22.606 19.7274 22.5498 19.793C22.4935 19.8587 22.4267 19.9107 22.3532 19.9462C22.2796 19.9818 22.2008 20 22.1212 20H-2.12135C-2.20098 20.0001 -2.27983 19.9818 -2.35341 19.9464C-2.42698 19.9109 -2.49383 19.8588 -2.55014 19.7931C-2.60644 19.7275 -2.65109 19.6495 -2.68153 19.5638C-2.71197 19.478 -2.7276 19.386 -2.72754 19.2932C-2.72754 14.2165 0.815266 10.0868 5.16899 10.0868C7.3281 10.0868 9.40245 10.9822 10.9343 12.7744C11.5697 13.5168 12.0802 14.3914 12.4393 15.3531Z"/>
</svg>
